<svg xmlns="http://www.w3.org/2000/svg" viewBox="0 0 280.5 237.8"><title>ikona_TECH_2</title><path d="M94.9,69.5l9.3,77.7,36,12.9,36.2-12.9,9.2-77.7Zm65.5,22.7-32.7.2v8.5l32.8.2v30l-20.2,9.6-20.1-11.1v-9h7.3v4.2l12.7,7.2,12.3-5.6V108.7H120.1V84.8h40.3Z" fill="none" stroke="#fff" stroke-miterlimit="10" stroke-width="2"/><g opacity="0.27"><polygon points="152.5 108.8 140.3 108.8 140.3 132.2 152.5 126.6 152.5 108.8" fill="#fff"/><polygon points="178.5 76.3 170.6 143.6 140.3 154.4 140.3 140.7 160.4 131.1 160.4 101.2 158.4 101.2 150.8 101.1 148.3 101.1 140.3 101 140.3 92.4 158.4 92.3 160.4 92.3 160.4 84.9 140.3 84.9 140.3 76.3 178.5 76.3" fill="#fff"/></g></svg>