<svg xmlns="http://www.w3.org/2000/svg" viewBox="0 0 240 237.8"><title>ikona_TECH_3</title><path d="M74.7,78.6l9.2,77.7L120,169.2l36.1-12.9,9.2-77.7Zm69,28.1-19.6,4.2,19.6.3v26.5L120,148.5,96,138.1v-8.2h7.8v3.3L120,140l16.1-7.3V118.9L96,118.3v-9l37.3-8.5-36.1.4v-8l46.5.3Z" fill="none" stroke="#fff" stroke-miterlimit="10" stroke-width="2"/><g opacity="0.27"><polygon points="136.1 118.9 120 118.7 120 140 136.1 132.7 136.1 118.9" fill="#fff"/><polygon points="120 101 120 103.8 133.3 100.8 120 101" fill="#fff"/><polygon points="120 86.9 120 93.4 143.8 93.5 143.8 106.7 124.1 110.9 143.8 111.2 143.8 137.7 120 148.5 120 160.8 149.5 150.3 157 86.9 120 86.9" fill="#fff"/></g></svg>