<svg xmlns="http://www.w3.org/2000/svg" viewBox="0 0 258.3 244.5"><title>ikona_TECH_1</title><path d="M155.1,73.7H93.4A14.5,14.5,0,0,0,78.9,88.2v61.7a14.5,14.5,0,0,0,14.5,14.5h61.7a14.5,14.5,0,0,0,14.5-14.5V88.2A14.5,14.5,0,0,0,155.1,73.7Zm-20.4,65c0,9.9-3.9,14.1-10.3,14.1s-10.2-4.2-10.2-14.1v-.5h7.4v.5c0,3.6.9,4.9,2.6,4.9s2.5-1.3,2.5-4.9V113.6h8Zm17.6,14.1c-6.9,0-12.2-2.8-12.2-13.7h7.5c0,4.1,1.6,4.8,4,4.8s3.5-.1,3.5-2.5c0-5.6-14.6-1.1-14.6-16.1,0-9,5.3-12.3,11.1-12.3s10.8,3.6,11,11.8v.7h-7.5v-.2c0-2-.9-3.9-3.2-3.9s-3.3,1.1-3.3,2.5c0,5.7,14.5,1.2,14.6,15.5C163.2,148.9,158.6,152.8,152.3,152.8Z" fill="none" stroke="#fff" stroke-miterlimit="10" stroke-width="2"/></svg>